<?xml version="1.0" encoding="utf-8"?>
<!-- Generator: Adobe Illustrator 16.0.4, SVG Export Plug-In . SVG Version: 6.00 Build 0)  -->
<!DOCTYPE svg PUBLIC "-//W3C//DTD SVG 1.1//EN" "http://www.w3.org/Graphics/SVG/1.1/DTD/svg11.dtd">
<svg version="1.1" id="레이어_1" xmlns="http://www.w3.org/2000/svg" xmlns:xlink="http://www.w3.org/1999/xlink" x="0px"
	 y="0px" width="841.89px" height="595.28px" viewBox="0 0 841.89 595.28" enable-background="new 0 0 841.89 595.28"
	 xml:space="preserve">
<path opacity="0.6" fill="#009944" d="M408.479,152.496c6.432,0,11.997,1.478,16.695,4.449c4.699,2.975,8.784,8.791,12.257,17.45
	l83.509,215.288c2.728,7.186,2.728,13.363,0,18.562c-2.723,5.197-7.173,8.779-13.36,10.76c-6.192,1.979-12.313,2.229-18.371,0.744
	c-6.068-1.48-10.465-6.178-13.176-14.107l-21.536-59.387h-93.534l-21.9,60.879c-2.726,7.176-6.873,11.445-12.433,12.809
	c-5.571,1.348-11.321,1.041-17.264-0.938c-5.94-1.98-10.272-5.314-12.988-10.027c-2.726-4.688-2.726-10.506,0-17.439l83.511-217.144
	c3.213-8.66,7.241-14.475,12.072-17.45C396.784,153.974,402.293,152.496,408.479,152.496z M407.727,211.886
	c-1.979,7.419-3.897,14.046-5.741,19.862c-1.859,5.811-4.279,12.923-7.25,21.335l-19.667,53.823h65.326l-19.302-53.823
	c-3.221-8.654-5.758-16.084-7.612-22.27C411.627,224.632,409.714,218.328,407.727,211.886z"/>
<path opacity="0.8" fill="#009944" d="M319.286,378.65h-45.357c5.151-9.922,7.748-21.438,7.748-34.578v-3.338
	c0-19.797-7.807-35.996-23.441-48.624c-15.637-12.617-41.543-22.15-77.721-28.575c-13.322-2.232-24.167-4.523-32.565-6.875
	c-8.39-2.348-14.979-4.944-19.756-7.795c-4.771-2.846-8.105-5.999-9.983-9.463c-1.892-3.46-2.828-7.547-2.828-12.252v-2.221
	c0-3.958,1.231-7.86,3.699-11.694c2.456-3.838,6.134-7.3,11.07-10.398c4.92-3.087,10.913-5.561,18.015-7.42
	c7.093-1.859,15.41-2.789,24.971-2.789c11.565,0,21.553,0.689,29.957,2.043c8.385,1.363,17.22,3.78,26.49,7.244
	c6.073,2.223,11.861,2.656,17.36,1.294c5.501-1.362,9.983-4.883,13.466-10.582c3.466-5.433,4.333-10.884,2.598-16.333
	c-1.733-5.433-5.794-9.519-12.164-12.245c-21.13-9.158-47.314-13.732-78.582-13.732c-18.229,0-34.301,1.981-48.194,5.938
	c-13.895,3.961-25.607,9.343-35.162,16.148c-9.555,6.802-16.716,14.792-21.495,23.942c-4.777,9.155-7.169,18.935-7.169,29.322v2.595
	c0,12.379,2.102,22.828,6.303,31.372c4.193,8.535,10.708,15.835,19.535,21.899c8.821,6.065,19.893,11.071,33.21,15.033
	c13.313,3.961,29.091,7.422,47.336,10.391c20.831,3.473,35.949,8.115,45.366,13.922c9.398,5.818,14.111,13.916,14.111,24.311v2.6
	c0,9.154-4.486,16.764-13.463,22.828c-5.939,4.016-14.338,6.668-25.098,8.031l-10.619,1.168c-2.126,0-1.924,0.395-13.938-0.281
	c-10.808-0.375-21.341-1.707-31.532-4.088c-12.165-2.852-23.309-6.74-33.437-11.697c-6.658-3.213-12.886-4.201-18.667-2.973
	c-5.799,1.242-10.71,4.59-14.762,10.025c-4.061,5.203-5.643,10.709-4.786,16.516c0.879,5.82,4.786,10.584,11.729,14.293
	c11.58,6.189,25.838,11.195,42.771,15.029c16.935,3.836,34.369,5.754,52.324,5.754c6.892,0,13.476-0.225,19.762-0.672h132.898
	c11.891,0,21.537-9.639,21.537-21.533C340.823,388.289,331.177,378.65,319.286,378.65z"/>
<path opacity="0.8" fill="#009944" d="M777.995,159.303c-4.221-4.456-11.794-6.685-22.727-6.685h-7.173
	c-5.018,0-9.394,0.503-13.156,1.494c-3.759,0.988-7.182,2.845-10.253,5.56c-3.071,2.728-5.92,6.562-8.538,11.509
	c-2.613,4.954-5.3,11.509-8.027,19.674l-44.757,126.576l-46.811-126.947c-3.197-8.411-6.097-15.093-8.71-20.048
	c-2.621-4.948-5.353-8.717-8.196-11.319c-2.857-2.599-6.098-4.323-9.741-5.192c-3.652-0.869-7.978-1.307-12.984-1.307h-7.173
	c-10.931,0-18.505,2.229-22.727,6.685c-4.22,4.461-6.316,12.501-6.316,24.132v194.131h-44.725c-11.9,0-21.544,9.639-21.544,21.539
	c0,11.898,9.644,21.537,21.544,21.537h64.002c4.522,0,8.714-1.391,12.187-3.779c1.105-0.576,2.184-1.23,3.215-1.996
	c4.212-3.092,6.314-7.979,6.314-14.662v-206.01c2.516,9.41,4.674,17.203,6.498,23.382c1.82,6.187,3.64,11.76,5.464,16.706
	l44.077,119.529c2.961,8.164,6.199,13.674,9.737,16.506c3.525,2.852,8.822,4.277,15.889,4.277c5.922,0,10.538-1.301,13.835-3.898
	c3.3-2.598,6.428-7.855,9.401-15.775l45.092-120.638c1.816-5.2,3.64-10.821,5.472-16.884c1.812-6.065,3.764-13.795,5.808-23.205
	v206.01c0,6.684,2.103,11.57,6.318,14.662c4.213,3.1,8.939,4.637,14.179,4.637c5.692,0,10.596-1.537,14.693-4.637
	c4.099-3.092,6.151-7.979,6.151-14.662v-216.77C784.313,171.805,782.203,163.765,777.995,159.303z"/>
</svg>
